<svg width="14" height="14" viewBox="0 0 14 14" fill="none" xmlns="http://www.w3.org/2000/svg">
<path d="M7 0C10.8598 0 14 3.14019 14 7C14 10.8598 10.8598 14 7 14C3.14019 14 0 10.8598 0 7C0 3.14019 3.14019 0 7 0ZM7 12.6452C10.1128 12.6452 12.6452 10.1128 12.6452 7C12.6452 3.88725 10.1128 1.35484 7 1.35484C3.88725 1.35484 1.35484 3.88725 1.35484 7C1.35484 10.1128 3.88725 12.6452 7 12.6452Z" fill="white"/>
<path d="M9.52819 8.9421C9.42637 8.94211 9.32302 8.91907 9.22577 8.87044L6.69673 7.60592C6.46723 7.49118 6.32227 7.25661 6.32227 7.00002V3.20647C6.32227 2.83235 6.62556 2.52905 6.99969 2.52905C7.37381 2.52905 7.6771 2.83235 7.6771 3.20647V6.58135L9.83167 7.65864C10.1663 7.82595 10.3019 8.23286 10.1346 8.56749C10.0159 8.80486 9.77667 8.9421 9.52819 8.9421Z" fill="white"/>
</svg>
