<svg width="14" height="14" viewBox="0 0 14 14" fill="none" xmlns="http://www.w3.org/2000/svg">
<path d="M13.6007 9.89295L10.5382 8.58043C10.2694 8.46589 9.9573 8.5428 9.77253 8.7691L8.41626 10.4262C6.28772 9.42257 4.57474 7.70959 3.57115 5.58105L5.22821 4.22477C5.455 4.04032 5.532 3.72785 5.41688 3.45914L4.10436 0.39659C3.9775 0.105754 3.6618 -0.0538201 3.35239 0.0165061L0.508602 0.672766C0.210827 0.741529 -6.84569e-05 1.00674 1.66691e-08 1.31235C1.66691e-08 8.32613 5.68485 14 12.6877 14C12.9934 14.0002 13.2588 13.7893 13.3275 13.4914L13.9838 10.6476C14.0537 10.3368 13.8929 10.0201 13.6007 9.89295Z" fill="#F2F6F9"/>
</svg>
