<svg width="19" height="19" viewBox="0 0 19 19" fill="none" xmlns="http://www.w3.org/2000/svg">
<path d="M15.4375 8.20455C15.4375 12.7386 9.5 16.625 9.5 16.625C9.5 16.625 3.5625 12.7386 3.5625 8.20455C3.5625 6.65845 4.18806 5.17569 5.30155 4.08243C6.41505 2.98918 7.92528 2.375 9.5 2.375C11.0747 2.375 12.5849 2.98918 13.6984 4.08243C14.8119 5.17569 15.4375 6.65845 15.4375 8.20455Z" stroke="white" stroke-linecap="round" stroke-linejoin="round"/>
<path d="M9.5 10.6875C10.8117 10.6875 11.875 9.62418 11.875 8.3125C11.875 7.00082 10.8117 5.9375 9.5 5.9375C8.18832 5.9375 7.125 7.00082 7.125 8.3125C7.125 9.62418 8.18832 10.6875 9.5 10.6875Z" stroke="white" stroke-linecap="round" stroke-linejoin="round"/>
</svg>
