<svg width="20" height="14" viewBox="0 0 20 14" fill="none" xmlns="http://www.w3.org/2000/svg">
<path d="M18.1611 0H1.75C0.783105 0 0 0.787971 0 1.75V12.25C0 13.2177 0.788861 14 1.75 14H18.1611C19.1199 14 19.9111 13.2211 19.9111 12.25V1.75C19.9111 0.789673 19.1311 0 18.1611 0ZM17.916 1.16667C17.5585 1.52231 11.4054 7.64295 11.193 7.85427C10.8624 8.18483 10.423 8.36683 9.95555 8.36683C9.48811 8.36683 9.04866 8.18479 8.71702 7.85318C8.57414 7.71104 2.489 1.658 1.99508 1.16667H17.916ZM1.16667 12.0125V1.9882L6.20814 7.00311L1.16667 12.0125ZM1.99582 12.8333L7.03531 7.82588L7.89316 8.67921C8.44406 9.23012 9.17649 9.53349 9.95555 9.53349C10.7346 9.53349 11.467 9.23012 12.0169 8.68031L12.8758 7.82588L17.9153 12.8333H1.99582ZM18.7444 12.0125L13.703 7.00311L18.7444 1.9882V12.0125Z" fill="#F2F6F9"/>
</svg>
